<svg width="29" height="25" viewBox="0 0 29 25" fill="none" xmlns="http://www.w3.org/2000/svg">
<path d="M14.5002 15.5C14.5002 17.5613 14.4259 19.2175 12.5 20.5" stroke="#4B5B98"/>
<path d="M14.5742 9.28273C14.5147 5.83965 14.4434 4.0125 16 3.50002" stroke="#4B5B98"/>
<path d="M0.5 4.00002C0.5 2.06702 2.067 0.500015 4 0.500015H25C26.933 0.500015 28.5 2.06702 28.5 4.00002V21C28.5 22.933 26.933 24.5 25 24.5H4C2.067 24.5 0.5 22.933 0.5 21V4.00002Z" stroke="#4B5B98"/>
<path d="M3.5 5.00002C3.5 4.17159 4.17157 3.50002 5 3.50002H24C24.8284 3.50002 25.5 4.17159 25.5 5.00002V19C25.5 19.8284 24.8284 20.5 24 20.5H5C4.17157 20.5 3.5 19.8284 3.5 19V5.00002Z" stroke="#4B5B98"/>
<path d="M3.5 7.50002H10.5V16.5H3.5V7.50002Z" stroke="#4B5B98"/>
<path d="M3.5 12.5H10.5V16.5H3.5V12.5Z" stroke="#4B5B98"/>
<path d="M10 9.00002H19M19 15H10" stroke="#4B5B98"/>
<path d="M18.5 12.5H25.5V16.5H18.5V12.5Z" stroke="#4B5B98"/>
<path d="M18.5 7.50002H25.5V16.5H18.5V7.50002Z" stroke="#4B5B98"/>
</svg>
