<?xml version="1.0" encoding="UTF-8"?>
<svg version="1.1" xmlns="http://www.w3.org/2000/svg" width="768" height="415">
<path d="M0 0 C211.53 0 423.06 0 641 0 C618.98836211 275.14547362 618.98836211 275.14547362 603 294 C602.24074219 294.97066406 601.48148438 295.94132812 600.69921875 296.94140625 C597.96409505 300.21510245 594.86069319 302.63031856 591.375 305.0625 C590.76108398 305.4944165 590.14716797 305.92633301 589.51464844 306.37133789 C576.8695895 315.05784374 563.059033 319.17111873 547.75063229 319.12863445 C546.94379225 319.13038749 546.13695222 319.13214053 545.30566248 319.13394669 C542.60292256 319.13859736 539.90023665 319.13614355 537.19749451 319.13371277 C535.23960214 319.13558124 533.28171015 319.13788209 531.32381874 319.14057809 C525.94355274 319.14669862 520.56330227 319.14656218 515.18303359 319.14538372 C509.37967986 319.14517976 503.57633114 319.15069819 497.77297974 319.15544128 C486.39990939 319.1637512 475.02684422 319.16649633 463.65377109 319.16705366 C454.40307649 319.16752893 445.15238359 319.16958421 435.90168953 319.17275429 C433.23692912 319.17364883 430.57216871 319.1745417 427.9074083 319.17542917 C426.91361207 319.17576074 426.91361207 319.17576074 425.89973915 319.17609901 C407.26173187 319.18225378 388.62372517 319.18619955 369.98571682 319.18575573 C369.28300939 319.18574015 368.58030197 319.18572457 367.85630038 319.18570852 C364.29489733 319.18562542 360.73349429 319.18552638 357.17209124 319.18542381 C356.46482174 319.18540387 355.75755224 319.18538392 355.02885033 319.18536337 C353.59857486 319.18532294 352.16829939 319.18528114 350.73802393 319.18523798 C328.5158538 319.18462607 306.29369896 319.19211608 284.0715332 319.20581055 C259.08567852 319.22120191 234.09983388 319.22977482 209.11397415 319.22884732 C195.89282917 319.22847773 182.67170068 319.23123574 169.45055962 319.24202538 C158.18618127 319.2511592 146.92182796 319.25328226 135.65744751 319.24651595 C129.91707555 319.24326446 124.17675152 319.24314401 118.4363842 319.2518692 C113.16609546 319.25979688 107.89589217 319.2582396 102.62560535 319.24958507 C100.73377985 319.24806368 98.84194777 319.24981388 96.95013004 319.25544515 C65.23759817 319.34347735 27.59840607 317.4093425 3.15625 294.33984375 C-18.94702782 270.35458395 -19.04880142 237.91451553 -18.12685776 207.10461807 C-17.7105328 196.91580501 -16.7411731 186.75504296 -15.8671875 176.59765625 C-15.70039561 174.61600875 -15.53361316 172.63436038 -15.36747408 170.65265805 C-14.59433295 161.43371539 -13.79981028 152.21666217 -13 143 C-12.90657712 141.9224978 -12.90657712 141.9224978 -12.8112669 140.82322788 C-11.02193142 120.19013716 -9.19448181 99.56049434 -7.35182297 78.93210495 C-6.80654763 72.82591979 -6.26398034 66.71949612 -5.7220161 60.61301631 C-5.12481304 53.88467045 -4.52599052 47.15646971 -3.92636871 40.428339 C-3.67549772 37.61320654 -3.42515332 34.79802802 -3.17525482 31.98280907 C-2.83042943 28.09931008 -2.48321432 24.21602678 -2.13574219 20.33276367 C-1.98460464 18.62613304 -1.98460464 18.62613304 -1.83041382 16.88502502 C-1.7352951 15.82627167 -1.64017639 14.76751831 -1.54217529 13.67668152 C-1.46109905 12.76774737 -1.38002281 11.85881323 -1.29648972 10.92233562 C-0.92641598 7.27472286 -0.45475325 3.63802597 0 0 Z " fill="#FEFDFE" transform="translate(65,47)"/>
<path d="M0 0 C66.33 0 132.66 0 201 0 C199.86654355 24.93604191 199.86654355 24.93604191 198.8453033 36.64540076 C198.50250775 40.59125935 198.17743261 44.53858899 197.85186768 48.48590088 C197.74744647 49.7502089 197.74744647 49.7502089 197.64091575 51.04005849 C196.78646282 61.4768546 196.04119927 71.92146679 195.29833984 82.36669922 C195.18880348 83.90532446 195.18880348 83.90532446 195.07705426 85.47503304 C194.69507015 90.84631997 194.31471581 96.21772052 193.93543625 101.58919907 C193.44983391 108.46645152 192.96115891 115.34348379 192.47207642 122.2204895 C191.26097026 139.25612718 190.05353212 156.29202452 188.847229 173.32800293 C187.90256313 186.66855728 186.95679462 200.00903137 186.00757182 213.34926236 C185.52150144 220.18217781 185.03774476 227.01525182 184.55576682 233.8484571 C184.25683359 238.07934984 183.95582969 242.3100934 183.65424919 246.54079819 C183.51510671 248.49869661 183.37682149 250.45665617 183.2394619 252.41468048 C183.0517876 255.08821794 182.86103203 257.76151867 182.66952515 260.43478394 C182.61612012 261.20625476 182.5627151 261.97772558 182.50769174 262.77257431 C182.18522284 267.22033421 181.68113212 271.59246086 181 276 C164.5431955 276.07050526 148.08644102 276.1231893 131.62952137 276.15543652 C123.985954 276.17081646 116.34248121 276.19173307 108.69897461 276.22631836 C102.0263522 276.25649586 95.35379838 276.27563919 88.68110961 276.28226548 C85.1575216 276.28613051 81.63412956 276.29502098 78.11060524 276.31719017 C50.82450232 276.48183873 19.465845 276.53329789 -1.8125 256.75 C-6.05052629 252.31729406 -8.67538324 247.63882941 -11 242 C-11.31735107 241.27699707 -11.63470215 240.55399414 -11.96166992 239.80908203 C-16.04544802 228.76089234 -16.64096785 216.53711255 -16.625 204.875 C-16.62646027 204.06633484 -16.62792053 203.25766968 -16.62942505 202.42449951 C-16.56568494 175.46021471 -13.33520182 148.53180682 -10.76588631 121.7178936 C-8.83148527 101.52986557 -7.1126727 81.32482589 -5.41286087 61.11589813 C-4.83737064 54.27623716 -4.25921308 47.43680299 -3.67937469 40.59750938 C-3.49024155 38.36162534 -3.30254141 36.12562498 -3.11505127 33.88960266 C-2.15898033 22.58317584 -1.07597851 11.29777431 0 0 Z " fill="#510D76" transform="translate(85,68)"/>
<path d="M0 0 C3.54150893 -0.08761663 7.08273633 -0.14059739 10.625 -0.1875 C11.62402344 -0.21263672 12.62304688 -0.23777344 13.65234375 -0.26367188 C19.19292606 -0.31871077 23.25418963 -0.21465807 28 3 C32.59860066 8.09574668 33.16484009 11.29774119 33.125 17.9921875 C33.12234131 18.79486053 33.11968262 19.59753357 33.11694336 20.42453003 C33.05081683 29.01020213 32.55025466 37.55912298 32 46.125 C29.00829849 71.39373709 29.00829849 71.39373709 36.9375 94.3125 C43.54178427 101.05351893 51.20588234 103.21430297 60.42871094 103.43164062 C68.52024063 103.6375442 68.52024063 103.6375442 76 101 C75.99476318 100.34966797 75.98952637 99.69933594 75.98413086 99.02929688 C75.88749227 84.946975 76.00806713 70.88760634 76.4375 56.8125 C76.4669722 55.78745361 76.4669722 55.78745361 76.49703979 54.74169922 C76.55473223 52.77167321 76.61906451 50.80184516 76.68359375 48.83203125 C76.72025146 47.70514893 76.75690918 46.5782666 76.79467773 45.41723633 C76.9838608 42.2686093 77.34250233 39.17667291 77.75498962 36.05058289 C78.16292833 32.63639224 78.34661424 29.21343793 78.53515625 25.78125 C78.57813339 25.03790405 78.62111053 24.29455811 78.66539001 23.52868652 C78.80026807 21.18592645 78.93144968 18.84297698 79.0625 16.5 C79.15405107 14.89842343 79.24584574 13.29686077 79.33789062 11.6953125 C79.56140679 7.79702989 79.78161124 3.89857308 80 0 C83.87474457 -0.11668214 87.74903396 -0.18741231 91.625 -0.25 C93.26662109 -0.30027344 93.26662109 -0.30027344 94.94140625 -0.3515625 C101.3084208 -0.42873843 105.19165526 -0.33383703 110 4 C114.37567638 8.60597514 114.23314547 12.24791996 114.15087891 18.24072266 C113.87517925 25.11001611 113.28657998 31.95329929 112.71633911 38.80337524 C108.49688653 67.31667371 108.49688653 67.31667371 115 94 C119.76694407 99.23798598 123.5546479 101.98700622 130.625 102.5625 C132.12933594 102.68818359 132.12933594 102.68818359 133.6640625 102.81640625 C134.43492187 102.87699219 135.20578125 102.93757813 136 103 C135.97679687 101.91847656 135.95359375 100.83695312 135.9296875 99.72265625 C135.7982041 90.58169605 136.10394375 81.57563472 136.91015625 72.46875 C138.03263666 59.13686429 138.82035527 45.79512473 139.5625 32.4375 C139.81067478 27.97768136 140.06250578 23.51808964 140.31640625 19.05859375 C140.37059219 18.06274765 140.42477814 17.06690155 140.48060608 16.0408783 C140.78749782 10.6532843 141.26119477 5.3459836 142 0 C149.40679605 -0.04655142 156.81356001 -0.08198421 164.22047329 -0.10362434 C167.66062564 -0.11401591 171.10067715 -0.12808935 174.54077148 -0.15087891 C178.50503286 -0.17697348 182.46925486 -0.18651104 186.43359375 -0.1953125 C188.2669352 -0.21079636 188.2669352 -0.21079636 190.13731384 -0.22659302 C203.08905398 -0.22827891 214.69215629 2.32267709 224.47265625 11.34375 C232.65615898 20.21793199 234.42030305 29.85258554 234.09860229 41.57440186 C233.75733236 49.96957895 233.05923061 58.34865073 232.40087891 66.72363281 C232.12458836 70.2552617 231.86062124 73.7876692 231.59765625 77.3203125 C231.42261347 79.59380698 231.24685686 81.86724663 231.0703125 84.140625 C230.95455368 85.70348236 230.95455368 85.70348236 230.8364563 87.2979126 C229.67160961 101.80001175 226.75928107 114.64807673 215.69921875 124.95703125 C204.18292591 133.67341498 192.88035078 135.21941055 178.75 135.375 C177.47769531 135.41238281 176.20539063 135.44976562 174.89453125 135.48828125 C166.58436569 135.56546545 161.04999935 134.36738936 154 130 C152.01034507 128.72442444 152.01034507 128.72442444 150 128 C147.52840297 128.99161664 145.41814209 130.00526295 143.125 131.3125 C132.34459084 137.32866382 118.62800217 137.71579589 106.5625 135.31640625 C97.95228677 132.36887587 90.79359395 126.92262037 84 121 C83.77570313 121.58652344 83.55140625 122.17304688 83.3203125 122.77734375 C79.13158513 129.82878125 68.4346038 133.61470883 60.80859375 135.55859375 C57.00643931 136.15615071 53.28112823 136.19112454 49.4375 136.1875 C48.64408203 136.18741943 47.85066406 136.18733887 47.03320312 136.18725586 C32.0870864 136.0435432 32.0870864 136.0435432 26 133 C25.68284048 135.83288119 25.37033845 138.66609932 25.0625 141.5 C24.9221936 142.783302 24.9221936 142.783302 24.77905273 144.0925293 C24.33768285 148.26488417 23.94738023 152.42169274 23.75 156.61328125 C23.71640381 157.32355469 23.68280762 158.03382813 23.64819336 158.765625 C23.56704433 160.70395407 23.50369623 162.64300451 23.44140625 164.58203125 C22.75448909 169.90108003 20.97660481 173.06585627 17.125 176.75 C12.73523344 179.91063192 9.32884932 181.26170367 3.91796875 181.1953125 C2.52094727 181.18564453 2.52094727 181.18564453 1.09570312 181.17578125 C-0.34385742 181.15064453 -0.34385742 181.15064453 -1.8125 181.125 C-2.79154297 181.11597656 -3.77058594 181.10695313 -4.77929688 181.09765625 C-7.18646365 181.0741717 -9.59306051 181.03958354 -12 181 C-12.12622099 172.54820646 -11.75607934 164.2238049 -11.08203125 155.80078125 C-10.93228104 153.84439448 -10.7825446 151.88800661 -10.63328362 149.93158245 C-10.47312701 147.83969379 -10.31107281 145.74795919 -10.14859009 143.65625 C-9.56356073 136.11177921 -8.99676562 128.56595232 -8.4375 121.01953125 C-8.37860407 120.22506214 -8.31970814 119.43059303 -8.25902748 118.6120491 C-7.28996841 105.47987596 -6.4294445 92.34244482 -5.625 79.19921875 C-5.56946142 78.29223047 -5.51392284 77.3852422 -5.45670128 76.45076942 C-4.91138072 67.52318938 -4.3761347 58.59503667 -3.85083675 49.6662569 C-3.60750876 45.53776908 -3.36150494 41.40944629 -3.11328125 37.28125 C-3.06647028 36.502638 -3.01965931 35.72402599 -2.97142982 34.92181969 C-2.2632364 23.25002526 -1.35371993 11.61656856 0 0 Z " fill="#520D77" transform="translate(419,140)"/>
<path d="M0 0 C1.35762828 0.00373569 2.71525928 0.00658003 4.07289124 0.00857544 C7.62553507 0.01616819 11.17801228 0.03577853 14.73059082 0.0579834 C18.36399075 0.07853637 21.99741792 0.08759726 25.63085938 0.09765625 C32.74485934 0.11902911 39.85874685 0.15311163 46.97265625 0.1953125 C47.03180314 7.47690758 47.00685146 14.69238582 46.38671875 21.94921875 C46.32555374 22.72141251 46.26438873 23.49360626 46.20137024 24.28919983 C46.07120959 25.93174913 45.93902382 27.5741391 45.80490112 29.21636963 C44.87840666 40.57796673 44.00045292 51.94035442 43.3984375 63.32421875 C43.33441742 64.53432365 43.33441742 64.53432365 43.269104 65.76887512 C43.0709125 69.576662 42.8835632 73.38473229 42.70751953 77.19360352 C41.15758473 109.28731421 41.15758473 109.28731421 28.97265625 121.1953125 C17.31399504 130.6432079 6.4966725 133.37668735 -8.21484375 133.4453125 C-9.84389648 133.47625 -9.84389648 133.47625 -11.50585938 133.5078125 C-23.39516844 133.56493831 -32.90628714 130.75990941 -41.77734375 122.6953125 C-42.89109375 121.4578125 -42.89109375 121.4578125 -44.02734375 120.1953125 C-44.70796875 119.4734375 -45.38859375 118.7515625 -46.08984375 118.0078125 C-53.07463723 107.86859616 -52.51417083 98.02963629 -52.02734375 86.1953125 C-51.97803711 84.87176758 -51.97803711 84.87176758 -51.92773438 83.52148438 C-51.35922416 68.77239857 -51.35922416 68.77239857 -50.515625 61.76171875 C-49.82692697 55.89403715 -49.7190989 50.0025894 -49.59765625 44.09960938 C-49.122367 30.6627863 -44.11463453 19.30306469 -34.30078125 10.015625 C-23.48008969 1.35163485 -13.42841088 -0.10677766 0 0 Z " fill="#520E77" transform="translate(359.02734375,139.8046875)"/>
<path d="M0 0 C1.36807329 -0.0001552 2.73614702 -0.0016476 4.10421753 -0.00440979 C6.96046572 -0.00578888 9.81620874 0.00668404 12.67236328 0.02954102 C16.32527545 0.05797906 19.97735272 0.05516755 23.63032722 0.0424509 C26.45115237 0.03548372 29.27178586 0.04329381 32.09258652 0.05570793 C34.09167139 0.06238862 36.09078326 0.05808943 38.08987427 0.05360413 C39.91734695 0.07263039 39.91734695 0.07263039 41.78173828 0.09204102 C42.85094513 0.097444 43.92015198 0.10284698 45.02175903 0.1084137 C49.62364792 0.72192966 52.16014975 2.61967576 55.1796875 6.05859375 C60.49422326 13.46098285 57.81239642 24.37896177 57.0078125 33.01171875 C56.03017186 43.86822314 55.3121133 54.72795767 54.66873169 65.60861206 C53.78377236 80.39592297 52.84796945 95.18114956 51.4921875 109.93359375 C51.34535522 111.70585327 51.34535522 111.70585327 51.19555664 113.51391602 C50.55060401 120.05516247 49.45915305 124.90344797 45.9296875 130.49609375 C41.11974498 134.26526423 36.27935784 135.615273 30.26831055 135.6730957 C29.10667892 135.68593094 27.9450473 135.69876617 26.74821472 135.71199036 C25.49196793 135.71937729 24.23572113 135.72676422 22.94140625 135.734375 C21.65031448 135.74244675 20.35922272 135.75051849 19.02900696 135.75883484 C16.2944858 135.77384761 13.55999048 135.78369232 10.82543945 135.79125977 C7.33166297 135.80231666 3.8385247 135.83671347 0.34497356 135.87643147 C-2.99785619 135.90894404 -6.34061812 135.91338009 -9.68359375 135.921875 C-10.93376785 135.93938309 -12.18394196 135.95689117 -13.47200012 135.97492981 C-24.18283915 135.9481724 -24.18283915 135.9481724 -29.0703125 131.49609375 C-29.84632813 130.80386719 -30.62234375 130.11164063 -31.421875 129.3984375 C-33.9139572 125.01071931 -33.5754867 121.01819022 -33.4453125 116.05859375 C-33.42488892 114.51099365 -33.42488892 114.51099365 -33.40405273 112.93212891 C-32.81596896 82.71401414 -32.81596896 82.71401414 -30.56591797 69.54370117 C-30.01615735 66.16307962 -29.79037391 62.8496409 -29.60546875 59.4296875 C-29.52839172 58.05264443 -29.45115578 56.67561026 -29.3737793 55.29858398 C-29.31521255 54.22868729 -29.31521255 54.22868729 -29.25546265 53.13717651 C-28.92794398 47.25284208 -28.55672461 41.37094186 -28.19274902 35.48876953 C-28.08090184 33.66843715 -27.97240458 31.84789973 -27.86425781 30.02734375 C-27.68597873 27.16039898 -27.47832116 24.29755276 -27.2578125 21.43359375 C-27.21213135 20.62784912 -27.1664502 19.82210449 -27.11938477 18.99194336 C-26.64140741 13.3604901 -25.02170515 8.65425501 -21.0703125 4.49609375 C-14.56977199 -0.61159527 -8.01267388 -0.06901024 0 0 Z " fill="#530F77" transform="translate(158.0703125,138.50390625)"/>
<path d="M0 0 C1.36807329 -0.0001552 2.73614702 -0.0016476 4.10421753 -0.00440979 C6.96046572 -0.00578888 9.81620874 0.00668404 12.67236328 0.02954102 C16.32527545 0.05797906 19.97735272 0.05516755 23.63032722 0.0424509 C26.45115237 0.03548372 29.27178586 0.04329381 32.09258652 0.05570793 C34.09167139 0.06238862 36.09078326 0.05808943 38.08987427 0.05360413 C39.91734695 0.07263039 39.91734695 0.07263039 41.78173828 0.09204102 C42.85094513 0.097444 43.92015198 0.10284698 45.02175903 0.1084137 C49.62364792 0.72192966 52.16014975 2.61967576 55.1796875 6.05859375 C60.49422326 13.46098285 57.81239642 24.37896177 57.0078125 33.01171875 C56.03017186 43.86822314 55.3121133 54.72795767 54.66873169 65.60861206 C53.78377236 80.39592297 52.84796945 95.18114956 51.4921875 109.93359375 C51.34535522 111.70585327 51.34535522 111.70585327 51.19555664 113.51391602 C50.55060401 120.05516247 49.45915305 124.90344797 45.9296875 130.49609375 C41.11974498 134.26526423 36.27935784 135.615273 30.26831055 135.6730957 C29.10667892 135.68593094 27.9450473 135.69876617 26.74821472 135.71199036 C25.49196793 135.71937729 24.23572113 135.72676422 22.94140625 135.734375 C21.65031448 135.74244675 20.35922272 135.75051849 19.02900696 135.75883484 C16.2944858 135.77384761 13.55999048 135.78369232 10.82543945 135.79125977 C7.33166297 135.80231666 3.8385247 135.83671347 0.34497356 135.87643147 C-2.99785619 135.90894404 -6.34061812 135.91338009 -9.68359375 135.921875 C-10.93376785 135.93938309 -12.18394196 135.95689117 -13.47200012 135.97492981 C-24.18283915 135.9481724 -24.18283915 135.9481724 -29.0703125 131.49609375 C-29.84632813 130.80386719 -30.62234375 130.11164063 -31.421875 129.3984375 C-33.9139572 125.01071931 -33.5754867 121.01819022 -33.4453125 116.05859375 C-33.42488892 114.51099365 -33.42488892 114.51099365 -33.40405273 112.93212891 C-32.81596896 82.71401414 -32.81596896 82.71401414 -30.56591797 69.54370117 C-30.01615735 66.16307962 -29.79037391 62.8496409 -29.60546875 59.4296875 C-29.52839172 58.05264443 -29.45115578 56.67561026 -29.3737793 55.29858398 C-29.31521255 54.22868729 -29.31521255 54.22868729 -29.25546265 53.13717651 C-28.92794398 47.25284208 -28.55672461 41.37094186 -28.19274902 35.48876953 C-28.08090184 33.66843715 -27.97240458 31.84789973 -27.86425781 30.02734375 C-27.68597873 27.16039898 -27.47832116 24.29755276 -27.2578125 21.43359375 C-27.21213135 20.62784912 -27.1664502 19.82210449 -27.11938477 18.99194336 C-26.64140741 13.3604901 -25.02170515 8.65425501 -21.0703125 4.49609375 C-14.56977199 -0.61159527 -8.01267388 -0.06901024 0 0 Z M-16.0703125 14.49609375 C-16.78160842 16.84190198 -16.78160842 16.84190198 -16.87573242 19.42211914 C-16.95228561 20.40156998 -17.02883881 21.38102081 -17.10771179 22.39015198 C-17.17142471 23.44733932 -17.23513763 24.50452667 -17.30078125 25.59375 C-17.38153397 26.69722275 -17.46228668 27.8006955 -17.54548645 28.93760681 C-17.80015053 32.47696553 -18.02912757 36.01747141 -18.2578125 39.55859375 C-18.42218306 41.88488245 -18.58818204 44.21105669 -18.75585938 46.53710938 C-19.53660346 57.5459223 -20.2443167 68.55754632 -20.71928406 79.58424377 C-20.85688187 82.54583116 -21.05299697 85.4034801 -21.59838867 88.32055664 C-22.29336479 92.99699448 -22.0703125 97.76829694 -22.0703125 102.49609375 C-0.9503125 102.49609375 20.1696875 102.49609375 41.9296875 102.49609375 C42.87520774 88.28610422 42.87520774 88.28610422 43.81420898 74.07568359 C43.93449806 72.286117 44.05500743 70.49656519 44.17578125 68.70703125 C44.23544067 67.78768799 44.2951001 66.86834473 44.35656738 65.92114258 C44.66572568 61.38149416 45.14295095 56.98191391 45.9296875 52.49609375 C46.3722427 47.75271659 46.67103822 42.99910309 46.9921875 38.24609375 C47.08306641 36.97378906 47.17394531 35.70148438 47.26757812 34.390625 C47.51673505 30.76005261 47.73600867 27.13002513 47.9296875 23.49609375 C47.98366699 22.49126953 48.03764648 21.48644531 48.09326172 20.45117188 C48.12049316 19.56365234 48.14772461 18.67613281 48.17578125 17.76171875 C48.20212646 17.00149414 48.22847168 16.24126953 48.25561523 15.45800781 C47.81901684 12.82991443 47.03290398 12.11346398 44.9296875 10.49609375 C42.35715213 10.03371629 42.35715213 10.03371629 39.42016602 10.09204102 C38.29212051 10.07935684 37.16407501 10.06667267 36.00184631 10.05360413 C34.78307297 10.05653976 33.56429962 10.0594754 32.30859375 10.0625 C31.05715073 10.05725815 29.8057077 10.0520163 28.51634216 10.0466156 C25.8672654 10.04018608 23.2190481 10.04010892 20.57006836 10.05004883 C17.1791219 10.06153426 13.78921748 10.04133695 10.39840794 10.01213169 C7.16013121 9.98934834 3.92193187 9.9962372 0.68359375 10 C-0.53315536 9.98876602 -1.74990448 9.97753204 -3.00352478 9.96595764 C-4.70032127 9.98002907 -4.70032127 9.98002907 -6.43139648 9.99438477 C-7.4260643 9.99455093 -8.42073212 9.9947171 -9.44554138 9.99488831 C-12.85453116 10.64584192 -14.01080151 11.73474175 -16.0703125 14.49609375 Z " fill="#FAF9FB" transform="translate(158.0703125,138.50390625)"/>
<path d="M0 0 C0.83575058 -0.00137466 1.67150116 -0.00274933 2.53257751 -0.00416565 C3.91037636 0.00122726 3.91037636 0.00122726 5.31600952 0.00672913 C6.28190506 0.0065831 7.2478006 0.00643707 8.2429657 0.00628662 C11.44620992 0.00698514 14.64939651 0.01477474 17.85263062 0.02259827 C20.0693763 0.02446266 22.2861224 0.02588646 24.50286865 0.02688599 C30.34560274 0.03070948 36.18831208 0.04053834 42.03103638 0.05158997 C47.98979355 0.0618077 53.94855471 0.06638438 59.90731812 0.07142639 C71.60524567 0.08216074 83.30315484 0.09923516 95.00106812 0.12025452 C94.87996895 3.17424771 94.74826954 6.22716476 94.61044312 9.28041077 C94.57741089 10.1410614 94.54437866 11.00171204 94.51034546 11.88844299 C94.15500148 19.44675438 93.05852578 25.13923329 87.50106812 30.55775452 C83.8391079 32.84647965 81.2166437 34.37210834 76.83755493 34.36076355 C76.01588333 34.36351288 75.19421173 34.36626221 74.34764099 34.36909485 C73.45500046 34.3619043 72.56235992 34.35471375 71.64266968 34.3473053 C70.69598923 34.34759735 69.74930878 34.3478894 68.77394104 34.34819031 C65.64643167 34.34679754 62.51916085 34.33123868 59.39169312 34.31556702 C57.2226474 34.3118367 55.0536 34.30898982 52.884552 34.30699158 C47.17661891 34.29935659 41.46878765 34.27970917 35.76089478 34.25758362 C29.93601865 34.23712235 24.11112607 34.22798925 18.28622437 34.21791077 C6.85779421 34.19646322 -4.57056037 34.16232881 -15.99893188 34.12025452 C-16.00104758 32.35430451 -16.00255943 30.58835378 -16.0038147 28.82240295 C-16.00472107 27.83898926 -16.00562744 26.85557556 -16.00656128 25.84236145 C-15.98437651 17.92701207 -15.78678859 11.63705948 -10.99893188 5.12025452 C-7.32538488 1.79656913 -4.93834427 -0.00625107 0 0 Z " fill="#EB6C26" transform="translate(550.9989318847656,286.87974548339844)"/>
<path d="M0 0 C3.95827235 -0.05785647 7.9164367 -0.09354717 11.875 -0.125 C13.00292969 -0.14175781 14.13085938 -0.15851563 15.29296875 -0.17578125 C16.36933594 -0.18222656 17.44570313 -0.18867188 18.5546875 -0.1953125 C19.54968262 -0.20578613 20.54467773 -0.21625977 21.56982422 -0.22705078 C24 0 24 0 26 2 C26.25878906 3.96655273 26.25878906 3.96655273 26.265625 6.43359375 C26.26989502 7.3762207 26.27416504 8.31884766 26.27856445 9.29003906 C26.26913818 10.32870117 26.25971191 11.36736328 26.25 12.4375 C26.23876099 14.05543457 26.23876099 14.05543457 26.22729492 15.70605469 C26.11177521 24.93988722 25.83773326 34.17192007 25.4161377 43.39675903 C25.34727869 44.96030037 25.28610831 46.52420005 25.23278809 48.08834839 C25.15403521 50.30550169 25.04396269 52.51901661 24.92578125 54.734375 C24.86817627 56.01538086 24.81057129 57.29638672 24.7512207 58.61621094 C23.81205471 62.84657839 22.4255195 64.40020457 19 67 C16.62817383 67.59936523 16.62817383 67.59936523 14.20703125 67.55859375 C13.32982422 67.55150391 12.45261719 67.54441406 11.54882812 67.53710938 C10.1943457 67.48780273 10.1943457 67.48780273 8.8125 67.4375 C7.89791016 67.43169922 6.98332031 67.42589844 6.04101562 67.41992188 C-0.70453477 67.29546523 -0.70453477 67.29546523 -3 65 C-3.24387239 61.95951306 -3.32963643 59.04412678 -3.3125 56 C-3.31056641 54.55548462 -3.31056641 54.55548462 -3.30859375 53.08178711 C-3.0951108 35.36403683 -1.39298118 17.65554249 0 0 Z " fill="#FCFBFC" transform="translate(592,174)"/>
<path d="M0 0 C1.6097168 0.01450195 1.6097168 0.01450195 3.25195312 0.02929688 C4.37150391 0.05443359 5.49105469 0.07957031 6.64453125 0.10546875 C7.77568359 0.11900391 8.90683594 0.13253906 10.07226562 0.14648438 C12.86766442 0.18186917 15.66211017 0.23123927 18.45703125 0.29296875 C18.04163874 13.84335899 17.28723577 27.37474356 16.32461548 40.89666748 C16.20470324 42.61713679 16.09122188 44.33806658 15.98422241 46.05938721 C15.83029066 48.50737099 15.65245507 50.95253074 15.46875 53.3984375 C15.42693604 54.13610855 15.38512207 54.8737796 15.34204102 55.63380432 C15.06894928 58.95094979 14.6455788 61.03095572 12.68505859 63.75537109 C10.13666245 65.51406044 8.86460076 65.79618738 5.796875 65.7890625 C4.92095703 65.78970703 4.04503906 65.79035156 3.14257812 65.79101562 C2.23572266 65.77103516 1.32886719 65.75105469 0.39453125 65.73046875 C-0.51619141 65.73755859 -1.42691406 65.74464844 -2.36523438 65.75195312 C-9.04769964 65.6879354 -9.04769964 65.6879354 -11.30541992 63.88745117 C-12.89418824 61.84045061 -12.88500162 60.73568583 -12.79296875 58.16796875 C-12.7775 57.46414062 -12.76203125 56.7603125 -12.74609375 56.03515625 C-12.58579895 53.87117648 -12.35122097 51.71270257 -12.08984375 49.55859375 C-11.15083484 41.36006288 -10.86276611 33.09046588 -10.41796875 24.85302734 C-10.29549243 22.60108964 -10.16935828 20.34937721 -10.04296875 18.09765625 C-9.98979492 17.07863724 -9.98979492 17.07863724 -9.93554688 16.03903198 C-9.28220768 4.45963352 -9.28220768 4.45963352 -7.3269043 1.3737793 C-4.80922644 -0.15157446 -2.9307767 -0.04652027 0 0 Z " fill="#FCFBFD" transform="translate(352.54296875,173.70703125)"/>
<path d="M0 0 C0.89534958 -0.00807175 1.79069916 -0.01614349 2.71318054 -0.02445984 C4.61044374 -0.03830305 6.50773188 -0.04902414 8.4050293 -0.05688477 C11.30240269 -0.07408921 14.19863254 -0.11797152 17.09570312 -0.16210938 C18.93879369 -0.17223707 20.78189396 -0.18075293 22.625 -0.1875 C23.92211662 -0.21376213 23.92211662 -0.21376213 25.24543762 -0.24055481 C29.36707527 -0.22574171 31.46858375 -0.10324442 35.03588867 2.13989258 C37.38989627 4.63991671 38.00099466 5.47561712 38.04931641 8.91210938 C38.0085498 10.02005859 37.9677832 11.12800781 37.92578125 12.26953125 C37.88195312 13.47222656 37.838125 14.67492187 37.79296875 15.9140625 C37.74140625 17.17605469 37.68984375 18.43804687 37.63671875 19.73828125 C37.59289062 21.00027344 37.5490625 22.26226562 37.50390625 23.5625 C37.1405025 32.98071374 37.1405025 32.98071374 36.01171875 35.23828125 C31.85275862 36.46150482 28.51692931 36.23828125 24.01171875 36.23828125 C24.34171875 27.98828125 24.67171875 19.73828125 25.01171875 11.23828125 C22.70171875 10.90828125 20.39171875 10.57828125 18.01171875 10.23828125 C17.9866626 10.9245459 17.96160645 11.61081055 17.93579102 12.31787109 C17.82000448 15.41653942 17.6971999 18.51489048 17.57421875 21.61328125 C17.53490234 22.69351563 17.49558594 23.77375 17.45507812 24.88671875 C17.41318359 25.91796875 17.37128906 26.94921875 17.328125 28.01171875 C17.29146729 28.96481934 17.25480957 29.91791992 17.21704102 30.89990234 C17.01171875 33.23828125 17.01171875 33.23828125 16.01171875 35.23828125 C12.71171875 35.23828125 9.41171875 35.23828125 6.01171875 35.23828125 C6.01171875 26.98828125 6.01171875 18.73828125 6.01171875 10.23828125 C3.70171875 9.90828125 1.39171875 9.57828125 -0.98828125 9.23828125 C-1.0133374 9.99036865 -1.03839355 10.74245605 -1.06420898 11.51733398 C-1.17978639 14.90367321 -1.3026847 18.28970738 -1.42578125 21.67578125 C-1.46509766 22.85978516 -1.50441406 24.04378906 -1.54492188 25.26367188 C-1.58681641 26.38837891 -1.62871094 27.51308594 -1.671875 28.671875 C-1.72686157 30.2350647 -1.72686157 30.2350647 -1.78295898 31.82983398 C-1.98828125 34.23828125 -1.98828125 34.23828125 -2.98828125 35.23828125 C-4.67437091 35.31033636 -6.36328784 35.32214193 -8.05078125 35.30078125 C-8.96988281 35.29175781 -9.88898438 35.28273437 -10.8359375 35.2734375 C-11.54621094 35.26183594 -12.25648438 35.25023437 -12.98828125 35.23828125 C-13.21771367 26.71104302 -12.96210575 18.35233158 -12.11328125 9.86328125 C-12.03480957 9.02498779 -11.95633789 8.18669434 -11.87548828 7.32299805 C-11.65564643 5.28513585 -11.33142882 3.25903915 -10.98828125 1.23828125 C-7.59499761 -0.45836057 -3.73468231 0.03168041 0 0 Z " fill="#541179" transform="translate(485.98828125,92.76171875)"/>
<path d="M0 0 C4.37464796 -0.14564235 8.7486696 -0.23419143 13.125 -0.3125 C14.3625 -0.35439453 15.6 -0.39628906 16.875 -0.43945312 C27.15462412 -0.57762012 27.15462412 -0.57762012 30.7421875 2.26953125 C36.22520495 8.90037761 35.6964209 15.71259133 35 24 C33.80252474 28.62660896 32.41776763 31.10632615 28.34765625 33.671875 C24.51362277 35.19296179 21.13124843 35.53638796 17.0625 35.5 C16.35464355 35.49645508 15.64678711 35.49291016 14.91748047 35.48925781 C8.97573118 35.29940799 6.06568971 34.25929398 2 30 C-0.1697383 26.62444275 -0.23422204 23.89064779 -0.1953125 19.921875 C-0.18886719 18.76171875 -0.18242187 17.6015625 -0.17578125 16.40625 C-0.15902344 15.1996875 -0.14226562 13.993125 -0.125 12.75 C-0.11597656 11.52796875 -0.10695313 10.3059375 -0.09765625 9.046875 C-0.07409513 6.03105218 -0.04119706 3.01562508 0 0 Z " fill="#EB6C26" transform="translate(420,94)"/>
<path d="M0 0 C1.61455078 0.00483398 1.61455078 0.00483398 3.26171875 0.00976562 C4.38964844 0.01814453 5.51757812 0.02652344 6.6796875 0.03515625 C7.81535156 0.03966797 8.95101563 0.04417969 10.12109375 0.04882812 C12.93234388 0.0606401 15.7434898 0.07711118 18.5546875 0.09765625 C19.08744814 25.61097136 19.08744814 25.61097136 13.5546875 32.09765625 C8.02413807 36.64499689 2.84978119 36.70102166 -4.1875 36.484375 C-8.5811376 35.96282809 -10.33236837 35.21060038 -13.4453125 32.09765625 C-16.54014218 27.93641538 -16.85135001 24.79686354 -16.8203125 19.66015625 C-16.82804687 18.38269531 -16.83578125 17.10523438 -16.84375 15.7890625 C-16.3469411 11.18627412 -15.09116104 7.86076627 -11.91015625 4.453125 C-7.50392777 1.08365616 -5.50629817 -0.02898052 0 0 Z " fill="#530F78" transform="translate(466.4453125,284.90234375)"/>
<path d="M0 0 C1.1653125 0.01804687 2.330625 0.03609375 3.53125 0.0546875 C6.39668249 0.1016618 9.26041168 0.16733707 12.125 0.25 C12.07248036 3.73033199 11.97726395 7.20830244 11.875 10.6875 C11.86082031 11.66138672 11.84664063 12.63527344 11.83203125 13.63867188 C11.59482917 20.73101411 10.6592136 27.74681462 5.40087891 32.95898438 C0.50063829 36.83002085 -4.82226208 36.92407241 -10.875 36.671875 C-15.85976428 35.97089252 -18.49228547 34.05585849 -21.49609375 30.1328125 C-23.34354964 26.27042597 -23.35289258 23.03903302 -23.3125 18.8125 C-23.33248047 18.07451172 -23.35246094 17.33652344 -23.37304688 16.57617188 C-23.36840627 11.35549293 -22.39490239 8.3204362 -18.875 4.25 C-13.36335374 -1.06794623 -7.18824977 -0.21094187 0 0 Z " fill="#541078" transform="translate(390.875,93.75)"/>
<path d="M0 0 C1.11761719 0.01804687 2.23523438 0.03609375 3.38671875 0.0546875 C6.1337003 0.10164445 8.87890047 0.16730532 11.625 0.25 C11.7423794 3.74971199 11.81263961 7.24890955 11.875 10.75 C11.92527344 12.22339844 11.92527344 12.22339844 11.9765625 13.7265625 C12.0615022 20.09704007 11.40137186 24.98684897 7.625 30.25 C3.1220034 34.86372602 -0.22686426 36.42372765 -6.625 36.5625 C-13.54997345 36.50899579 -16.11625143 35.43807691 -20.99609375 30.6640625 C-23.09286082 26.99323517 -22.84941911 23.53007839 -22.8125 19.375 C-22.83248047 18.58480469 -22.85246094 17.79460937 -22.87304688 16.98046875 C-22.86857302 11.60289576 -22.03812374 8.43120281 -18.375 4.25 C-12.91955434 -0.94730155 -7.08707634 -0.2170365 0 0 Z " fill="#530F77" transform="translate(352.375,93.75)"/>
<path d="M0 0 C1.60004883 0.01450195 1.60004883 0.01450195 3.23242188 0.02929688 C4.88661133 0.06700195 4.88661133 0.06700195 6.57421875 0.10546875 C7.69634766 0.11900391 8.81847656 0.13253906 9.97460938 0.14648438 C12.73747104 0.18175495 15.49934704 0.2310464 18.26171875 0.29296875 C18.34954417 3.81364226 18.40238518 7.33403019 18.44921875 10.85546875 C18.47435547 11.84611328 18.49949219 12.83675781 18.52539062 13.85742188 C18.60003633 21.34687416 17.86855158 26.28508472 12.82421875 32.10546875 C7.51720595 36.63584553 3.269319 36.72485104 -3.59765625 36.609375 C-7.65987983 36.20012113 -9.8164393 35.13792013 -12.73828125 32.29296875 C-15.97864328 28.0429287 -16.28170947 24.10341071 -16.23828125 18.91796875 C-16.23401123 18.15790527 -16.22974121 17.3978418 -16.2253418 16.61474609 C-16.1016623 12.5704704 -15.89729805 9.35261795 -13.55078125 5.91796875 C-9.14408164 1.80504911 -6.09651874 -0.09780511 0 0 Z " fill="#530F78" transform="translate(506.73828125,284.70703125)"/>
<path d="M0 0 C2.3745601 3.56184015 2.19798018 4.92529517 2.046875 9.12890625 C2.00433594 10.32837891 1.96179688 11.52785156 1.91796875 12.76367188 C1.86253906 14.01728516 1.80710937 15.27089844 1.75 16.5625 C1.71003906 17.81998047 1.67007813 19.07746094 1.62890625 20.37304688 C1.25587798 29.74412202 1.25587798 29.74412202 -1 32 C-5.69594768 33.39072297 -10.63940002 33.29312159 -15.5 33.375 C-16.76263672 33.43107422 -16.76263672 33.43107422 -18.05078125 33.48828125 C-22.45923711 33.5507633 -24.4059571 33.4362384 -28.05859375 30.75390625 C-30.55204072 27.21692413 -30.66396388 25.40422307 -30.43359375 21.22265625 C-29.77150309 17.82869602 -28.2120777 15.60244435 -26 13 C-22.93466836 11.46733418 -19.73245728 11.89723529 -16.375 11.9375 C-15.31539062 11.94426758 -15.31539062 11.94426758 -14.234375 11.95117188 C-12.48954725 11.96296125 -10.744763 11.98089676 -9 12 C-9.44280462 9.93880108 -9.44280462 9.93880108 -11 8 C-13.64161946 7.37076031 -15.94870705 6.98701487 -18.625 6.75 C-19.68460938 6.63398437 -19.68460938 6.63398437 -20.765625 6.515625 C-22.5087053 6.32718389 -24.25420924 6.16141131 -26 6 C-26 3.36 -26 0.72 -26 -2 C-17.63580032 -4.5672296 -7.7357513 -4.0166401 0 0 Z " fill="#57157B" transform="translate(656,96)"/>
<path d="M0 0 C1.19109375 -0.01063477 1.19109375 -0.01063477 2.40625 -0.02148438 C7.06570214 0.02899302 10.22590612 0.42264766 14 3.4375 C15.53266582 6.50283164 15.10276471 9.70504272 15.0625 13.0625 C15.05798828 13.76890625 15.05347656 14.4753125 15.04882812 15.203125 C15.03703875 16.94795275 15.01910324 18.692737 15 20.4375 C10.48184719 21.32027755 6.22487306 21.54339503 1.625 21.5 C-0.24285156 21.48646484 -0.24285156 21.48646484 -2.1484375 21.47265625 C-3.55996094 21.45525391 -3.55996094 21.45525391 -5 21.4375 C-4.67 22.7575 -4.34 24.0775 -4 25.4375 C1.28 25.7675 6.56 26.0975 12 26.4375 C12 28.7475 12 31.0575 12 33.4375 C7.69304078 35.54891946 3.71019137 35.77172597 -1 35.75 C-1.69867187 35.76611328 -2.39734375 35.78222656 -3.1171875 35.79882812 C-8.72619539 35.80411964 -11.75080898 34.5344532 -15.7890625 30.76953125 C-17.58600015 27.30897712 -17.43418854 23.92950794 -17.375 20.125 C-17.38660156 19.39087891 -17.39820313 18.65675781 -17.41015625 17.90039062 C-17.37698315 11.66937609 -16.10383935 6.82365603 -11.875 2.02734375 C-7.85778001 -0.19413524 -4.51497061 -0.11360721 0 0 Z " fill="#56137A" transform="translate(542,93.5625)"/>
<path d="M0 0 C1.7634375 -0.01160156 1.7634375 -0.01160156 3.5625 -0.0234375 C7.35761401 0.41645071 9.76279616 1.37056855 13 3.375 C15.45598077 7.05897116 15.2271532 9.82223808 15.125 14.0625 C15.08375 16.475625 15.0425 18.88875 15 21.375 C7.74 21.375 0.48 21.375 -7 21.375 C-6.67 22.695 -6.34 24.015 -6 25.375 C-0.39 25.705 5.22 26.035 11 26.375 C11 29.015 11 31.655 11 34.375 C6.51907955 35.62811193 2.19049911 35.6728082 -2.4375 35.75 C-3.7069043 35.80607422 -3.7069043 35.80607422 -5.00195312 35.86328125 C-9.21914933 35.92272489 -11.43120559 35.73557503 -15.0625 33.43359375 C-17.73238258 29.2188396 -17.70333373 25.95361721 -17.5625 21.0625 C-17.57345703 20.24587891 -17.58441406 19.42925781 -17.59570312 18.58789062 C-17.52690927 12.83213797 -16.53206106 8.03465436 -13 3.375 C-8.73098774 0.37483305 -5.15014758 -0.03388255 0 0 Z " fill="#551179" transform="translate(577,93.625)"/>
<path d="M0 0 C1.16781006 0.00523682 2.33562012 0.01047363 3.53881836 0.01586914 C4.79887695 0.0190918 6.05893555 0.02231445 7.35717773 0.02563477 C8.6976732 0.03399136 10.03816799 0.04245632 11.37866211 0.05102539 C12.72306153 0.05603879 14.06746271 0.06060197 15.41186523 0.06469727 C18.71334151 0.07653051 22.01473014 0.09301568 25.31616211 0.11352539 C25.2039201 7.14007383 23.7019138 10.93851346 18.87866211 15.98852539 C17.87904615 17.08925488 16.88031514 18.19078882 15.88256836 19.29321289 C15.0356543 20.22391602 14.18874023 21.15461914 13.31616211 22.11352539 C12.65616211 23.10352539 11.99616211 24.09352539 11.31616211 25.11352539 C15.60616211 25.44352539 19.89616211 25.77352539 24.31616211 26.11352539 C24.31616211 29.08352539 24.31616211 32.05352539 24.31616211 35.11352539 C14.08616211 35.11352539 3.85616211 35.11352539 -6.68383789 35.11352539 C-6.68383789 28.71870886 -6.54617549 28.22383905 -2.62133789 23.80102539 C-1.80665039 22.86000977 -0.99196289 21.91899414 -0.15258789 20.94946289 C0.66209961 20.01360352 1.47678711 19.07774414 2.31616211 18.11352539 C3.6833489 16.39463476 5.03901668 14.66646638 6.37866211 12.92602539 C7.34803711 11.66790039 8.31741211 10.40977539 9.31616211 9.11352539 C5.02616211 9.11352539 0.73616211 9.11352539 -3.68383789 9.11352539 C-3.78149414 2.96118164 -3.78149414 2.96118164 -3.68383789 1.11352539 C-2.68383789 0.11352539 -2.68383789 0.11352539 0 0 Z " fill="#57157B" transform="translate(598.683837890625,92.886474609375)"/>
<path d="M0 0 C21.12 0 42.24 0 64 0 C64 7 64 7 62.35916138 9.90003967 C59.44037196 12.49814171 58.11936971 12.61866988 54.25341797 12.59936523 C52.52174881 12.60848183 52.52174881 12.60848183 50.75509644 12.61778259 C49.51333649 12.59825027 48.27157654 12.57871796 46.9921875 12.55859375 C45.71522003 12.55626236 44.43825256 12.55393097 43.12258911 12.55152893 C40.42349139 12.54178359 37.72650787 12.52271232 35.02783203 12.48706055 C31.5663264 12.44169684 28.10557236 12.4270296 24.64379692 12.42332363 C21.34317462 12.41783627 18.04272486 12.39446438 14.7421875 12.37109375 C13.49637909 12.36573105 12.25057068 12.36036835 10.9670105 12.35484314 C9.24479782 12.33086205 9.24479782 12.33086205 7.48779297 12.30639648 C5.96700638 12.29043678 5.96700638 12.29043678 4.41549683 12.27415466 C2 12 2 12 0 10 C0 6.7 0 3.4 0 0 Z " fill="#56137A" transform="translate(135,251)"/>
<path d="M0 0 C2.97 0 5.94 0 9 0 C9.042721 1.66611905 9.04063832 3.33382885 9 5 C8 6 8 6 6.15234375 6.09765625 C4.1015625 6.06510417 2.05078125 6.03255208 0 6 C0 4.02 0 2.04 0 0 Z " fill="#F0EAF3" transform="translate(637,114)"/>
<path d="M0 0 C2.64 0 5.28 0 8 0 C8.33 1.65 8.66 3.3 9 5 C5.7 5 2.4 5 -1 5 C-0.67 3.35 -0.34 1.7 0 0 Z " fill="#F8F5F9" transform="translate(572,103)"/>
<path d="M0 0 C1.134375 0.020625 2.26875 0.04125 3.4375 0.0625 C3.7675 1.7125 4.0975 3.3625 4.4375 5.0625 C1.1375 5.0625 -2.1625 5.0625 -5.5625 5.0625 C-4.31580396 0.07571586 -4.31580396 0.07571586 0 0 Z " fill="#F8F5F9" transform="translate(542.5625,102.9375)"/>
</svg>
